<?xml version="1.0" encoding="iso-8859-1"?>
<!-- Generator: Adobe Illustrator 19.0.0, SVG Export Plug-In . SVG Version: 6.00 Build 0)  -->
<svg version="1.1" id="Capa_1" xmlns="http://www.w3.org/2000/svg" xmlns:xlink="http://www.w3.org/1999/xlink" x="0px" y="0px"
	 viewBox="0 0 512 512" style="enable-background:new 0 0 512 512;" xml:space="preserve">
<g>
	<g>
		<g>
			<path d="M177.592,0H20.105C9,0,0,9,0,20.105v156.817c0,11.104,9,20.105,20.105,20.105c11.104,0,20.105-9,20.105-20.105V40.209
				h137.382c11.104,0,20.105-9,20.105-20.105C197.696,9,188.696,0,177.592,0z"/>
			<path d="M176.921,471.12H40.209V334.408c0-11.104-9-20.105-20.105-20.105C9,314.304,0,323.304,0,334.408v156.817
				c0,11.104,9,20.105,20.105,20.105h156.817c11.104,0,20.105-9,20.105-20.105S188.026,471.12,176.921,471.12z"/>
			<path d="M491.225,314.304c-11.104,0-20.105,9-20.105,20.105v137.382H334.408c-11.104,0-20.105,9-20.105,20.105
				s9,20.105,20.105,20.105h156.817c11.104,0,20.105-8.994,20.105-20.105V334.408C511.33,323.304,502.33,314.304,491.225,314.304z"
				/>
			<path d="M491.895,0H334.408c-11.104,0-20.105,9-20.105,20.105c0,11.104,9,20.105,20.105,20.105h137.382v137.382
				c0,11.104,9,20.105,20.105,20.105c11.111,0,20.105-9,20.105-20.105V20.105C512,9,503,0,491.895,0z"/>
		</g>
	</g>
</g>
<g>
</g>
<g>
</g>
<g>
</g>
<g>
</g>
<g>
</g>
<g>
</g>
<g>
</g>
<g>
</g>
<g>
</g>
<g>
</g>
<g>
</g>
<g>
</g>
<g>
</g>
<g>
</g>
<g>
</g>
</svg>
