<svg id="Layer_1" enable-background="new 0 0 512 512" height="512" viewBox="0 0 512 512" width="512" xmlns="http://www.w3.org/2000/svg"><path d="m315.275 400.458-177.688-145.476 177.688-145.475 25.339 30.95-139.885 114.525 139.885 114.525zm196.674 51.542v-392c0-33.084-26.916-60-60-60h-392c-33.084 0-59.898 26.916-59.898 60v392c0 33.084 26.814 60 59.898 60h392c33.084 0 60-26.916 60-60zm-60-412c11.028 0 20.102 8.972 20.102 20v392c0 11.028-9.074 20-20.102 20h-392c-11.028 0-20-8.972-20-20v-392c0-11.028 8.972-20 20-20z"/></svg>