<?xml version="1.0" encoding="iso-8859-1"?>
<!-- Generator: Adobe Illustrator 19.0.0, SVG Export Plug-In . SVG Version: 6.00 Build 0)  -->
<svg version="1.1" id="Capa_1" xmlns="http://www.w3.org/2000/svg" xmlns:xlink="http://www.w3.org/1999/xlink" x="0px" y="0px"
	 viewBox="0 0 512.008 512.008" style="enable-background:new 0 0 512.008 512.008;" xml:space="preserve">
<g>
	<g>
		<path d="M231.557,109.809L124.891,3.143c-0.981-0.981-2.176-1.771-3.477-2.325c-2.603-1.088-5.547-1.088-8.149,0
			c-1.301,0.555-2.496,1.344-3.477,2.325L3.12,109.788c-4.16,4.16-4.16,10.923,0,15.083c4.16,4.16,10.923,4.16,15.083,0
			l88.469-88.448V501.34c0,5.888,4.779,10.667,10.667,10.667s10.667-4.779,10.667-10.667V36.423l88.448,88.448
			c2.091,2.091,4.821,3.136,7.552,3.136s5.461-1.045,7.552-3.115C235.717,120.732,235.717,113.969,231.557,109.809z"/>
	</g>
</g>
<g>
	<g>
		<path d="M508.891,387.121c-4.16-4.16-10.923-4.16-15.083,0l-88.469,88.469V10.673c0-5.888-4.779-10.667-10.667-10.667
			s-10.667,4.779-10.667,10.667v464.917l-88.448-88.448c-4.16-4.16-10.923-4.16-15.083,0c-4.16,4.16-4.16,10.923,0,15.083
			L387.12,508.871c0.981,0.981,2.176,1.771,3.477,2.325c1.301,0.533,2.688,0.811,4.075,0.811s2.773-0.277,4.075-0.811
			c1.323-0.533,2.496-1.323,3.477-2.325l106.645-106.645C513.051,398.044,513.051,391.303,508.891,387.121z"/>
	</g>
</g>
<g>
</g>
<g>
</g>
<g>
</g>
<g>
</g>
<g>
</g>
<g>
</g>
<g>
</g>
<g>
</g>
<g>
</g>
<g>
</g>
<g>
</g>
<g>
</g>
<g>
</g>
<g>
</g>
<g>
</g>
</svg>
