<svg id="Capa_1" enable-background="new 0 0 512 512" height="512" viewBox="0 0 512 512" width="512" xmlns="http://www.w3.org/2000/svg"><g><g><circle cx="151.485" cy="359.609" fill="#4f4c5f" r="67.842"/><circle cx="360.515" cy="359.609" fill="#5c586f" r="67.842"/><path d="m322.146 504.5h-132.292l-44.827-48.637c13.77-45.85 43.52-65.873 43.56-65.954h134.826c.04.081 29.79 20.103 43.56 65.954z" fill="#fccb88"/><path d="m373.823 504.5h-51.677v-48.637h44.827c4.155 13.811 6.85 29.973 6.85 48.637z" fill="#da9d81"/><path d="m189.854 455.863v48.637h-51.677c0-18.664 2.695-34.826 6.85-48.637z" fill="#da9d81"/><path d="m448.434 32.15c-4.877-14.073-17.682-23.775-32.56-24.478-26.435-1.249-70.644 3.514-104.172 41.791l120.914 102.463c.001 0 37.952-55.907 15.818-119.776z" fill="#fccb88"/><path d="m63.566 32.15c4.877-14.073 17.682-23.775 32.56-24.478 26.435-1.249 70.644 3.514 104.172 41.791l-120.915 102.463s-37.951-55.907-15.817-119.776z" fill="#fccb88"/><path d="m416.499 48.909c-.995-3.557-4.254-6.033-7.947-6.035-.022 0-.043 0-.065 0-19.465 0-48.23 4.981-70.107 29.956l64.891 59.174c2.284-3.56 25.097-40.647 13.228-83.095z" fill="#ff9db0"/><path d="m95.501 48.909c.995-3.557 4.254-6.033 7.947-6.035h.065c19.465 0 48.23 4.981 70.107 29.956l-64.891 59.174c-2.284-3.56-25.097-40.647-13.228-83.095z" fill="#ff9db0"/><path d="m220.47 389.909h-31.882c-.041.081-29.79 20.103-43.561 65.954l20.726 22.487c.967-38.352 22.876-71.496 54.717-88.441z" fill="#fbc072"/><ellipse cx="256" cy="223.963" fill="#fbe29f" rx="191.237" ry="181.921"/><path d="m173.178 335.799c-31.767-17.109-53.396-50.692-53.396-89.238 0-33.26 16.111-62.828 40.937-81.309l61.648-20.004h67.267l61.648 20.004c24.827 18.481 40.937 48.049 40.937 81.309 0 38.546-21.629 72.129-53.396 89.238l-64.321 12.075h-37.003z" fill="#da9d81"/><g fill="#fff"><path d="m222.367 145.247-14.244 42.259c-6.436 19.107-33.472 19.107-39.908 0l-7.495-22.254c16.867-12.57 37.769-20.004 60.377-20.004h1.27z"/><path d="m351.281 165.251-7.495 22.254c-6.436 19.107-33.472 19.107-39.908 0l-14.244-42.259h1.271c22.607.001 43.509 7.436 60.376 20.005z"/><path d="m237.499 347.874h-16.403c-17.321 0-33.643-4.368-47.918-12.075l10.169-30.183c6.436-19.107 33.472-19.107 39.908 0z"/><path d="m338.822 335.799c-14.274 7.707-30.597 12.075-47.918 12.075h-16.403l14.244-42.259c6.436-19.107 33.472-19.107 39.908 0z"/></g><path d="m281.383 102.805c0 9.456-11.365 17.121-25.383 17.121s-25.383-7.666-25.383-17.121 11.364-11.201 25.383-11.201 25.383 1.745 25.383 11.201z" fill="#ff9db0"/><path d="m105.636 223.451c0-73.547 37.432-137.969 93.502-173.673-77.85 21.905-134.375 88.369-134.375 174.185 0 78.485 47.287 140.772 114.919 167.6-48.542-35.264-74.046-94.76-74.046-168.112z" fill="#fccb88"/><path d="m165.719 481.001c0-8.672 1.076-17.091 3.092-25.138h-23.784c-4.154 13.811-6.85 29.972-6.85 48.637h30.234c-1.759-7.549-2.692-15.415-2.692-23.499z" fill="#c7856a"/></g><g><path d="m180.644 223.854c-4.142 0-7.5 3.358-7.5 7.5v14.473c0 4.142 3.358 7.5 7.5 7.5s7.5-3.358 7.5-7.5v-14.473c0-4.142-3.358-7.5-7.5-7.5z"/><path d="m331.287 223.854c-4.142 0-7.5 3.358-7.5 7.5v14.473c0 4.142 3.358 7.5 7.5 7.5s7.5-3.358 7.5-7.5v-14.473c0-4.142-3.358-7.5-7.5-7.5z"/><path d="m280.752 239.743c-3.122-2.722-7.86-2.397-10.582.726-3.586 4.114-8.764 6.474-14.204 6.474s-10.618-2.36-14.204-6.474c-2.721-3.123-7.459-3.448-10.582-.726-3.123 2.721-3.448 7.459-.726 10.582 6.435 7.384 15.734 11.619 25.512 11.619s19.076-4.235 25.512-11.619c2.721-3.123 2.396-7.86-.726-10.582z"/><path d="m172.967 128.763c4.142 0 7.5-3.358 7.5-7.5v-15.932c0-4.142-3.358-7.5-7.5-7.5s-7.5 3.358-7.5 7.5v15.932c0 4.142 3.358 7.5 7.5 7.5z"/><path d="m338.789 128.763c4.142 0 7.5-3.358 7.5-7.5v-15.932c0-4.142-3.358-7.5-7.5-7.5s-7.5 3.358-7.5 7.5v15.932c0 4.142 3.358 7.5 7.5 7.5z"/><path d="m255.966 127.421c18.44 0 32.884-10.815 32.884-24.621 0-18.701-23.89-18.701-32.884-18.701s-32.884 0-32.884 18.701c0 13.806 14.444 24.621 32.884 24.621zm-15.457-26.694c3.11-1.096 8.166-1.628 15.457-1.628s12.347.533 15.457 1.628c2.427.855 2.427 1.419 2.427 2.072 0 4.542-7.648 9.621-17.884 9.621s-17.884-5.08-17.884-9.621c0-.653 0-1.217 2.427-2.072z"/><path d="m455.489 29.687c-5.92-17.081-21.343-28.666-39.293-29.515-24.84-1.171-71.137 2.717-106.999 40.858-33.764-8.473-71.188-8.852-106.463 0-35.862-38.14-82.159-42.03-106.999-40.858-17.95.848-33.373 12.434-39.293 29.515-5.205 15.02-7.663 30.85-7.304 47.049.092 4.141 3.542 7.443 7.664 7.332 4.141-.091 7.424-3.523 7.332-7.664-.319-14.411 1.862-28.476 6.481-41.806 3.9-11.254 14.038-18.886 25.828-19.443 25.49-1.204 60.774 3.462 89.926 30.71-7.365 2.506-14.546 5.414-21.51 8.714-21.121-15.78-44.807-19.213-61.451-19.213-7.035.004-13.271 4.739-15.166 11.516-7.394 26.441-2.396 50.806 3.816 67.699-4.918 6.793-9.399 13.98-13.169 21.047-3.66-7.564-8.056-18.297-11.086-31.096-.954-4.031-4.994-6.523-9.026-5.571-4.031.954-6.525 4.995-5.571 9.026 5.146 21.74 13.73 37.866 17.748 44.641-9.008 22.16-13.729 46.255-13.729 71.329 0 36.153 9.793 70.278 28.14 99.488-26.032 47.47 5.444 106.545 59.575 111.203-2.635 5.817-5.062 12.163-7.132 19.055-.001.002-.001.004-.001.006-4.754 15.809-7.165 32.896-7.165 50.788 0 4.142 3.358 7.5 7.5 7.5h235.65c4.142 0 7.5-3.358 7.5-7.5 0-17.892-2.411-34.98-7.166-50.791 0-.001 0-.002-.001-.004-2.068-6.885-4.492-13.224-7.124-19.036 14.344-1.218 27.851-6.455 39.392-15.339 3.282-2.527 3.895-7.236 1.369-10.518-2.527-3.283-7.237-3.894-10.518-1.369-11.358 8.743-24.78 12.792-37.894 12.493-6.105-10.249-12.58-18.2-18.03-23.97 30.434-13.262 56.363-33.614 75.365-58.331 6.099 15.57 5.634 33.643-2.504 49.488-1.893 3.685-.44 8.206 3.245 10.098 3.684 1.893 8.206.44 10.098-3.245 11.314-22.027 11.135-48.48-.957-70.529 18.346-29.21 28.14-63.335 28.14-99.488 0-25.069-4.719-49.159-13.723-71.315 8.151-13.648 34.671-64.762 14.505-122.954zm-46.846 70.888c-13.157-14.865-28.954-27.807-46.526-38.07 16.254-9.853 33.689-12.138 46.398-12.138.332 0 .638.233.728.555 5.156 18.438 3.219 35.869-.6 49.653zm-305.955-49.652c.088-.316.402-.555.79-.555 12.658 0 30.085 2.285 46.337 12.138-17.449 10.191-33.197 23.039-46.526 38.069-3.819-13.784-5.757-31.215-.601-49.652zm-7.44 286.712c18.47 24.023 44.121 44.717 75.365 58.332-5.45 5.77-11.924 13.72-18.03 23.97-42.447.967-73.08-42.104-57.335-82.302zm55.431 125.728h31.639v33.637h-36.522c.487-11.72 2.122-22.986 4.883-33.637zm163.933 33.637h-117.293v-41.138c0-4.142-3.358-7.5-7.5-7.5h-34.358c6.595-17.276 16.906-33.671 30.438-46.471 14.863 5.097 31.142 8.758 48.384 10.437l-15.287 38.818c-1.947 4.943 1.727 10.25 6.976 10.25 2.991 0 5.818-1.802 6.98-4.754l17.07-43.346c.039.001 4.637.195 11.885 0l17.07 43.346c1.513 3.842 5.86 5.752 9.726 4.231 3.854-1.518 5.748-5.873 4.23-9.727l-15.287-38.818c16.191-1.58 32.499-4.99 48.385-10.437 13.415 12.648 23.82 29.137 30.438 46.471h-34.357c-4.142 0-7.5 3.358-7.5 7.5zm15.001 0v-33.637h31.639c2.761 10.652 4.396 21.919 4.883 33.637zm76.755-170.606c-71.94 96.596-229.989 95.642-301.079-.368-21.487-29.017-33.064-64.331-33.064-102.067 0-59.203 28.56-112.068 77.758-143.89 118.882-77.489 289.722-3.67 289.722 143.89.001 36.79-11.022 72.447-33.337 102.435zm26.656-190.8c-3.69-6.911-8.151-14.108-13.151-21.012 6.212-16.893 11.21-41.258 3.816-67.699-1.895-6.776-8.131-11.511-15.236-11.515-16.579 0-40.261 3.433-61.381 19.213-6.965-3.301-14.145-6.208-21.51-8.714 29.152-27.248 64.432-31.915 89.927-30.71 11.789.557 21.927 8.189 25.828 19.443 14.74 42.536.888 81.888-8.293 100.994z"/><path d="m290.871 137.742c-.101 0-69.81 0-69.81 0-60.47 0-108.815 49.324-108.815 108.815 0 40.061 21.963 76.778 57.319 95.831.005.003.01.006.014.009 15.723 8.489 33.525 12.976 51.482 12.976h69.81c17.957 0 35.759-4.487 51.481-12.976.004-.002.007-.004.011-.006 35.358-19.052 57.323-55.77 57.323-95.833-.001-59.469-48.325-108.816-108.815-108.816zm20.08 47.363-10.755-31.908c15.101 1.482 29.454 6.571 42.156 14.963l-5.707 16.946c-4.147 12.307-21.553 12.291-25.694-.001zm-135.664.002-5.708-16.946c12.702-8.393 27.056-13.481 42.157-14.964l-10.756 31.91c-4.125 12.245-21.518 12.395-25.693 0zm7.051 146.886 8.081-23.986c4.17-12.379 21.566-12.253 25.693.001 2.175 6.454 7.08 21.005 10.909 32.363-3.285-.29-22.153 1.863-44.683-8.378zm102.572 8.379 10.909-32.365c4.161-12.353 21.56-12.268 25.693 0l8.081 23.986c-22.648 10.295-41.371 8.086-44.683 8.379zm58.011-15.801-7.193-21.352c-3.977-11.807-14.599-19.436-27.061-19.436-.001 0 0 0 0 0-12.317 0-23.04 7.497-27.062 19.435-1.373 4.072-10.63 31.536-12.524 37.154h-26.23c-13.748-40.787-13.105-40.289-16.635-45.109-5.53-7.55-14.17-11.481-22.951-11.481-12.462 0-23.085 7.629-27.062 19.436l-7.194 21.352c-25.967-17.334-41.764-46.473-41.764-78.014 0-25.954 10.99-50.879 29.828-68.53l3.997 11.868c8.703 25.836 45.364 26.005 54.124.001 1.373-4.072 10.63-31.536 12.524-37.154h56.494l12.524 37.153c8.722 25.893 45.391 25.925 54.124 0l3.997-11.868c18.835 17.651 29.828 42.577 29.828 68.53 0 31.542-15.796 60.681-41.764 78.015z"/></g></g></svg>