<svg id="Capa_1" enable-background="new 0 0 512 512" height="512" viewBox="0 0 512 512" width="512" xmlns="http://www.w3.org/2000/svg"><g><g><path d="m439.13 145.672c11.318 25.108 17.622 52.943 17.622 82.223h-401.504c0-29.281 6.305-57.115 17.622-82.223l23.457-25.835h312.85z" fill="#5c586f"/><g><circle cx="422.375" cy="237.717" fill="#ffbe9c" r="46.979"/></g><path d="m307.184 352.311h-102.368l.582 76.095 25.252 76.094h50.7l21.908-76.094z" fill="#d8d8d8"/><circle cx="256" cy="227.895" fill="#ffd3bc" r="166.375"/><path d="m364.797 372.381c6.598-7.997.854-20.07-9.514-20.07h-58.181c-14.268 0-25.834 11.566-25.834 25.834v126.355h45.799l45.455-54.982c-7.219-21.863-17.876-38.325-27.324-49.777 13.559-9.885 23.068-19.444 29.599-27.36z" fill="#ff889e"/><path d="m216.888 389.635c-54.206-27.047-91.585-84.227-91.585-150.396 0-34.268 10.031-66.121 27.226-92.631h-41.716c-7.685 13.696-13.482 28.591-17.056 44.332-1.364-.12-2.738-.202-4.132-.202-25.946 0-46.979 21.033-46.979 46.979s21.033 46.979 46.979 46.979c3.289 0 6.498-.341 9.596-.985 18.667 52.423 62.886 92.724 117.667 105.924z" fill="#ffbe9c"/><path d="m204.816 352.311h-58.181c-10.368 0-16.112 12.073-9.514 20.07 6.531 7.916 16.04 17.475 29.599 27.36-9.449 11.452-20.105 27.914-27.324 49.777l45.455 54.982h45.799v-126.354c0-14.268-11.566-25.835-25.834-25.835z" fill="#ff889e"/><path d="m448.642 120.919c-37.684-67.596-109.911-113.419-192.642-113.419s-154.958 45.823-192.642 113.419c-6.42 11.515 2.003 25.689 15.188 25.689h354.91c13.183.001 21.606-14.173 15.186-25.689z" fill="#50e1cd"/><path d="m159.764 474.155c5.742-50.919 21.064-101.644 50.863-121.18-1.869-.43-3.812-.664-5.811-.664h-58.181c-10.368 0-16.112 12.072-9.514 20.07 6.531 7.916 16.04 17.475 29.599 27.359-9.448 11.452-20.105 27.914-27.324 49.777z" fill="#ff748f"/><path d="m184.851 449.518v54.982h-54c0-21.146 3.398-39.435 8.545-54.982z" fill="#ffd3bc"/><path d="m371.068 504.5h-54v-54.982h45.455c5.146 15.547 8.545 33.836 8.545 54.982z" fill="#ffd3bc"/><g><g><g><ellipse cx="154.686" cy="256.571" fill="#ff9db0" rx="37.383" ry="29.77"/></g><g><ellipse cx="357.314" cy="256.571" fill="#ff9db0" rx="37.383" ry="29.77"/></g></g></g><circle cx="99.226" cy="283.711" fill="#fbe29f" r="21.59"/><path d="m110.146 143.496c0-52.222 36.086-102.372 89.247-128.624-58.349 15.52-107.261 54.435-136.035 106.047-6.42 11.515 2.003 25.689 15.187 25.689h31.649c-.028-1.035-.048-2.072-.048-3.112z" fill="#00d1b3"/><path d="m163.341 449.518h-23.945c-5.147 15.548-8.545 33.836-8.545 54.982h26.579c.761-18.031 2.657-36.848 5.911-54.982z" fill="#ffbe9c"/></g><g><path d="m176.473 235.414c4.142 0 7.5-3.357 7.5-7.5v-15.281c0-4.142-3.358-7.5-7.5-7.5s-7.5 3.358-7.5 7.5v15.281c0 4.142 3.358 7.5 7.5 7.5z"/><path d="m335.527 235.414c4.142 0 7.5-3.357 7.5-7.5v-15.281c0-4.142-3.358-7.5-7.5-7.5s-7.5 3.358-7.5 7.5v15.281c0 4.142 3.358 7.5 7.5 7.5z"/><path d="m256 244.511c10.203 0 19.906-4.419 26.621-12.125 2.721-3.122 2.396-7.86-.727-10.581-3.123-2.722-7.861-2.396-10.582.727-3.866 4.436-9.447 6.979-15.313 6.979s-11.447-2.544-15.313-6.979c-2.721-3.123-7.459-3.448-10.582-.727s-3.448 7.459-.727 10.582c6.717 7.705 16.42 12.124 26.623 12.124z"/><path d="m476.855 237.717c0-14.187-5.455-27.12-14.372-36.824-2.329-17.905-6.959-35.345-13.795-51.971 9.418-7.333 12.673-20.592 6.506-31.654-40.326-72.334-116.652-117.268-199.194-117.268-31.231 0-61.518 6.237-90.019 18.539-3.803 1.642-5.555 6.055-3.914 9.858s6.055 5.556 9.858 3.914c26.614-11.487 54.901-17.311 84.075-17.311 77.106 0 148.412 41.985 186.091 109.572 3.538 6.344-.868 13.692-7.444 14.46-.927.111 2.952.077-45.829.077v-24.226c0-4.142-3.358-7.5-7.5-7.5s-7.5 3.358-7.5 7.5v24.226h-47.659v-24.226c0-4.142-3.358-7.5-7.5-7.5s-7.5 3.358-7.5 7.5v24.226h-47.659v-24.226c0-4.142-3.358-7.5-7.5-7.5s-7.5 3.358-7.5 7.5v24.226h-47.659v-24.226c0-4.142-3.358-7.5-7.5-7.5s-7.5 3.358-7.5 7.5v24.226h-47.659v-24.226c0-4.142-3.358-7.5-7.5-7.5s-7.5 3.358-7.5 7.5v24.226c-.107 0-45.094.028-46.03-.102-6.547-.912-10.705-8.224-7.243-14.436 17.838-31.998 43.791-59.055 75.051-78.247 3.53-2.167 4.635-6.786 2.468-10.315-2.167-3.53-6.786-4.635-10.316-2.468-33.448 20.535-61.216 49.487-80.304 83.726-6.139 11.012-2.947 24.293 6.506 31.655-6.836 16.625-11.466 34.065-13.795 51.97-8.918 9.704-14.373 22.638-14.373 36.825 0 22.916 14.329 43.184 35.438 51.042 2.398 13.641 14.325 24.042 28.643 24.042 1.64 0 3.246-.144 4.813-.405 7.791 13.996 17.401 26.758 28.687 38.095-7.04 6.983-8.171 18.445-1.389 26.664 6.896 8.359 15.211 16.394 24.781 23.955-10.293 13.813-18.3 29.27-23.841 46.05 0 0 0 .001-.001.001-5.922 17.891-8.925 37.182-8.925 57.339 0 4.142 3.358 7.5 7.5 7.5h250.299c4.142 0 7.5-3.358 7.5-7.5 0-20.157-3.003-39.449-8.925-57.339 0-.001-.001-.003-.002-.004-5.541-16.779-13.547-32.236-23.84-46.047 9.57-7.561 17.885-15.596 24.782-23.955 6.802-8.244 5.626-19.712-1.396-26.671 16.731-16.834 29.71-36.785 38.333-58.511 32.136 2.806 59.252-22.624 59.252-54.256zm-54.08 39.477c7.464-25.26 9.066-52.52 4.624-78.629 19.342 2.406 34.456 19.073 34.456 39.152 0 21.636-17.494 39.262-39.08 39.477zm11.823-123.111c4.571 11.021 8.095 22.432 10.541 34.114-6.528-3.008-13.945-4.714-21.053-4.934-2.653-10.015-6.204-19.769-10.611-29.155 20.714-.008 20.054.022 21.123-.025zm-336.072.026c-4.407 9.387-7.958 19.141-10.611 29.155-7.186.222-14.544 1.935-21.052 4.933 2.445-11.682 5.969-23.092 10.54-34.114 1.061.047.359.017 21.123.026zm-35.979 54.904c6.114-5.771 13.867-9.424 22.055-10.448-3.223 18.937-3.426 39.348.212 59.877-5.656 3.195-10.337 8.606-12.688 14.677-23.581-11.648-30.375-43.794-9.579-64.106zm22.589 74.697c0-6.217 4.13-11.811 10.245-13.54 1.194-.338 2.628-.55 3.845-.55 7.725 0 14.09 6.347 14.09 14.09 0 7.703-6.278 14.09-14.09 14.09-7.769.001-14.09-6.32-14.09-14.09zm32.591 22.449c6.5-5.355 10.585-13.542 10.59-22.445 0-.001 0-.002 0-.002 0-.045-.003-.089-.003-.134-.076-15.659-12.701-28.854-28.926-28.956-5.847-34.49-.247-69.725 15.907-100.512h281.411c33.081 63.018 20.285 141.51-33.149 190.702h-56.373c-18.381 0-33.334 14.954-33.334 33.334v7.628c-11.229 1.258-23.512 1.357-35.699-.008v-7.621c0-18.38-14.954-33.334-33.334-33.334h-56.373c-12.242-11.261-22.545-24.229-30.717-38.652zm27.187 150.859h32.437v39.982h-38.849c.566-13.928 2.714-27.328 6.412-39.982zm39.937-15h-34.701c5.592-13.691 13.086-26.269 22.356-37.503 2.748-3.332 2.12-8.292-1.367-10.834-11.19-8.158-20.689-16.93-28.232-26.072-2.557-3.099-.325-7.797 3.728-7.797h58.181c10.11 0 18.334 8.225 18.334 18.334v118.854h-30.799v-47.482c0-4.143-3.358-7.5-7.5-7.5zm149.798 54.982v-39.982h32.437c3.698 12.655 5.847 26.055 6.412 39.982zm34.445-129.392c-7.544 9.143-17.042 17.915-28.232 26.072-3.49 2.545-4.113 7.505-1.367 10.834 9.269 11.234 16.764 23.813 22.356 37.503h-34.702c-4.142 0-7.5 3.358-7.5 7.5v47.483h-30.799v-39.222c0-4.142-3.358-7.5-7.5-7.5s-7.5 3.358-7.5 7.5v39.222h-35.7v-96.144c10.89 1.167 23.635 1.227 35.699.006v26.954c0 4.142 3.358 7.5 7.5 7.5s7.5-3.358 7.5-7.5c0-14.63 0-34.052 0-49.671 0-10.11 8.225-18.334 18.334-18.334h58.181c4.052 0 6.288 4.696 3.73 7.797z"/></g></g></svg>